# AST/ASF file generated using VICON BodyLanguage
# -----------------------------------------------
:version 1.10
:name VICON
:units
  mass 1.0
  length 0.45
  angle deg
:documentation
   .ast/.asf automatically generated from VICON data using
   VICON BodyBuilder and BodyLanguage model FoxedUp or BRILLIANT.MOD
:root
   order TX TY TZ RX RY RZ
   axis XYZ
   position 0 0 0  
   orientation 0 0 0 
:bonedata
  begin
     id 1 
     name lhipjoint
     direction 0.650112 -0.723553 0.232005 
     length 2.45805 
     axis 0 0 0  XYZ
  end
  begin
     id 2 
     name lfemur
     direction 0.34202 -0.939693 0  
     length 7.00073  
     axis 0 0 20  XYZ
    dof rx ry rz
    limits (-160.0 20.0)
           (-70.0 70.0)
           (-60.0 70.0)
  end
  begin
     id 3 
     name ltibia
     direction 0.34202 -0.939693 0   
     length 7.8748   
     axis 0 0 20   XYZ
    dof rx
    limits (-10.0 170.0)
  end
  begin
     id 4 
     name lfoot
     direction 0.0542825 -0.14914 0.987325   
     length 1.75978   
     axis -90 7.62852e-016 20   XYZ
    dof rx rz
    limits (-45.0 90.0)
           (-70.0 20.0)
  end
  begin
     id 5 
     name ltoes
     direction 1.53509e-011 -4.21906e-011 1   
     length 0.893912   
     axis -90 7.62852e-016 20   XYZ
    dof rx
    limits (-90.0 20.0)
  end
  begin
     id 6 
     name rhipjoint
     direction -0.637897 -0.733345 0.235145   
     length 2.42522  
     axis 0 0 0  XYZ 
  end
  begin
     id 7 
     name rfemur
     direction -0.34202 -0.939693 0   
     length 7.02549   
     axis 0 0 -20   XYZ
    dof rx ry rz
    limits (-160.0 20.0)
           (-70.0 70.0)
           (-70.0 60.0)
  end
  begin
     id 8 
     name rtibia
     direction -0.34202 -0.939693 0   
     length 7.71512   
     axis 0 0 -20   XYZ
    dof rx
    limits (-10.0 170.0)
 end
 begin
     id 9 
     name rfoot
     direction -0.0822618 -0.226012 0.970645   
     length 1.90014  
     axis -90 -7.62852e-016 -20   XYZ
    dof rx rz
    limits (-45.0 90.0)
           (-20.0 70.0)
  end
  begin
     id 10 
     name rtoes
     direction -1.53542e-011 -4.21872e-011 1   
     length 0.957341   
     axis -90 -7.62852e-016 -20   XYZ
    dof rx
    limits (-90.0 20.0)
  end
  begin
     id 11 
     name lowerback
     direction -0.0022947 0.999774 -0.0211557   
     length 1.89909   
     axis 0 0 0   XYZ
    dof rx ry rz
    limits (-20.0 45.0)
           (-30.0 30.0)
           (-30.0 30.0)
  end
  begin
     id 12 
     name upperback
     direction 0.0107737 0.998635 0.0511027   
     length 1.8853   
     axis 0 0 0   XYZ
    dof rx ry rz
    limits (-20.0 45.0)
           (-30.0 30.0)
           (-30.0 30.0)
  end
  begin
     id 13 
     name thorax
     direction 0.011824 0.998136 0.0598754   
     length 1.88911   
     axis 0 0 0   XYZ
    dof rx ry rz
    limits (-20.0 45.0)
           (-30.0 30.0)
           (-30.0 30.0)
  end
  begin
     id 14 
     name lowerneck
     direction -0.0685355 0.990319 0.120714   
     length 1.91222   
     axis 0 0 0   XYZ
    dof rx ry rz
    limits (-20.0 45.0)
           (-30.0 30.0)
           (-30.0 30.0)
  end
  begin
     id 15 
     name upperneck
     direction 0.0886204 0.955665 -0.280805   
     length 1.92526   
     axis 0 0 0   XYZ
    dof rx ry rz
    limits (-20.0 45.0)
           (-30.0 30.0)
           (-30.0 30.0)
  end
  begin
     id 16
     name head
     direction 0.0233423 0.993502 -0.111393  
     length 1.96056  
     axis 0 0 0   XYZ
    dof rx ry rz
    limits (-20.0 45.0)
           (-30.0 30.0)
           (-30.0 30.0)
  end
  begin
     id 17 
     name lclavicle
     direction 0.941873 0.32922 0.0670041  
     length 3.31705  
     axis 0 0 0   XYZ
    dof ry rz
    limits (-20.0 10.0)
           (0.0 20.0)
  end
  begin
     id 18 
     name lhumerus
     direction 1 -4.4898e-011 3.38707e-028   
     length 5.29277   
     axis 180 -30 -90   XYZ
    dof rx ry rz
    limits (-60.0 90.0)
           (-90.0 90.0)
           (-90.0 90.0)
  end
  begin
     id 19
     name lradius
     direction 1 -4.48952e-011 1.63213e-028   
     length 2.85226   
     axis 180 -30 -90   XYZ
    dof rx
    limits (-10.0 170.0)
  end
  begin
     id 20
     name lwrist
     direction 1 -4.49001e-011 1.27856e-027   
     length 1.42613   
     axis -1.61767e-015 90 90   XYZ
    dof ry
    limits (-180.0 0.0)
 end
  begin
     id 21 
     name lhand
     direction 1 -4.48976e-011 2.55931e-027   
     length 0.602097   
     axis -1.63363e-015 90 90   XYZ
    dof rx rz
    limits (-90.0 90.0)
           (-45.0 45.0)
  end
  begin
     id 22 
     name lfingers
     direction 1 -4.48986e-011 5.11684e-027   
     length 0.485426   
     axis -3.26723e-015 90 90   XYZ
    dof rx
    limits (0.0 90.0)
  end
  begin
     id 23
     name lthumb
     direction 0.707107 -6.34915e-011 0.707107   
     length 0.696978   
     axis -90 45 -2.25915e-014   XYZ
    dof rx rz
    limits (-45.0 45.0)
           (-45.0 45.0)
  end
  begin
     id 24 
     name rclavicle
     direction -0.939974 0.327078 0.0973096   
     length 3.10337  
     axis 0 0 0   XYZ 
    dof ry rz
    limits (-10.0 20.0)
           (-20.0 0.0)
  end
  begin
     id 25 
     name rhumerus
     direction -1 -4.48975e-011 1.83745e-027  
     length 5.13304   
     axis 180 30 90   XYZ
    dof rx ry rz
    limits (-90.0 60.0)
           (-90.0 90.0)
           (-90.0 90.0)
  end
  begin
     id 26 
     name rradius
     direction -1 -4.48977e-011 7.1775e-029   
     length 2.74305   
     axis 180 30 90   XYZ
    dof rx
    limits (-10.0 170.0)
  end
  begin
     id 27 
     name rwrist
     direction -1 -4.48977e-011 1.27963e-027   
     length 1.37152   
     axis -1.61767e-015 -90 -90   XYZ
    dof ry
    limits (-180.0 0.0)
  end
  begin
     id 28
     name rhand
     direction -1 -4.4888e-011 2.56782e-027   
     length 0.767976   
     axis -1.63363e-015 -90 -90   XYZ
    dof rx rz
    limits (-90.0 90.0)
           (-45.0 45.0)
  end
  begin
     id 29
     name rfingers
     direction -1 -4.48947e-011 5.12384e-027   
     length 0.619162   
     axis -3.26723e-015 -90 -90   XYZ
    dof rx
    limits (0.0 90.0)
  end
  begin
     id 30
     name rthumb
     direction -0.707107 -6.34857e-011 0.707107   
     length 0.888997   
     axis -90 -45 2.25915e-014   XYZ
    dof rx rz
    limits (-45.0 45.0)
           (-45.0 45.0)
  end
:hierarchy
  begin
    root lhipjoint rhipjoint lowerback
    lhipjoint lfemur
    lfemur ltibia
    ltibia lfoot
    lfoot ltoes
    rhipjoint rfemur
    rfemur rtibia
    rtibia rfoot
    rfoot rtoes
    lowerback upperback
    upperback thorax
    thorax lowerneck lclavicle rclavicle
    lowerneck upperneck
    upperneck head
    lclavicle lhumerus
    lhumerus lradius
    lradius lwrist
    lwrist lhand lthumb
    lhand lfingers
    rclavicle rhumerus
    rhumerus rradius
    rradius rwrist
    rwrist rhand rthumb
    rhand rfingers
  end

#!OML:ASF F:\VICON\USERDATA\INSTALL\rory3\rory3.ASF
:FULLY-SPECIFIED
:DEGREES
1022
root 0.223953 17.0305 -1.50741 -0.883358 -5.7723 -8.44018
lowerback 7.26093 5.60345 -2.66707
upperback 8.53804 7.55128 -6.12056
thorax 5.43269 3.84121 -5.11207
lowerneck 4.90114 -8.00189 -9.89117
upperneck 10.7327 -14.4178 31.6488
head 5.46026 -6.80549 11.6996
rclavicle 4.13472e-014 -1.90833e-014
rhumerus 71.1174 -1.34853 -107.745
rradius 12.6
rwrist 12.3813
rhand -5.16156 11.554
rfingers 7.12502
rthumb 20.6382 -17.3688
lclavicle 4.13472e-014 -1.90833e-014
lhumerus 60.3909 -18.2677 114.453
lradius 17.2776
lwrist -1.92709
lhand -13.4347 30.0637
lfingers 7.12502
lthumb 12.6741 59.6592
rfemur -8.39156 6.67927 26.6154
rtibia 20.679
rfoot -14.887 0.202001
rtoes -25.218
lfemur -14.4938 -7.63186 -9.12511
ltibia 37.3478
lfoot -20.3177 8.18762
ltoes -17.0452
1023
root 0.222524 17.0327 -1.50327 -0.974017 -5.61595 -8.3528
lowerback 7.26445 5.58715 -2.72095
upperback 8.58198 7.52798 -6.0297
thorax 5.4549 3.82298 -4.9844
lowerneck 5.00455 -8.01888 -10.1831
upperneck 10.7028 -14.4428 31.6362
head 5.45827 -6.83999 11.7535
rclavicle -3.18055e-015 -3.49861e-014
rhumerus 71.0019 -1.09311 -107.718
rradius 12.6616
rwrist 11.6539
rhand -5.31393 11.4144
rfingers 7.12502
rthumb 20.4918 -17.5242
lclavicle -3.18055e-015 -3.49861e-014
lhumerus 60.7954 -18.2766 113.869
lradius 16.9596
lwrist -1.81359
lhand -13.5662 29.909
lfingers 7.12502
lthumb 12.5473 59.5122
rfemur -8.29026 6.5928 26.5316
rtibia 20.699
rfoot -14.9602 0.152326
rtoes -25.5568
lfemur -14.4112 -7.7279 -9.23209
ltibia 37.3187
lfoot -20.4122 8.00639
ltoes -16.4679
1024
root 0.219 17.0338 -1.49873 -1.02541 -5.46342 -8.31019
lowerback 7.19712 5.54207 -2.85936
upperback 8.64217 7.46463 -5.82337
thorax 5.50182 3.77389 -4.67984
lowerneck 5.01315 -8.01661 -10.6789
upperneck 10.742 -14.458 31.5677
head 5.50325 -6.86577 11.8226
rclavicle -2.54444e-014 0
rhumerus 70.9822 -0.721786 -107.536
rradius 12.5304
rwrist 10.8192
rhand -5.3455 11.3585
rfingers 7.12502
rthumb 20.4614 -17.5834
lclavicle -2.54444e-014 0
lhumerus 61.0438 -17.9971 113.744
lradius 16.8549
lwrist -2.16393
lhand -13.5376 29.8508
lfingers 7.12502
lthumb 12.5749 59.4524
rfemur -8.23219 6.58995 26.5011
rtibia 20.7273
rfoot -14.9606 -0.00330692
rtoes -25.5812
lfemur -14.3959 -7.81945 -9.27529
ltibia 37.2782
lfoot -20.368 8.07392
ltoes -17.0986
1025
root 0.217737 17.0334 -1.49532 -1.04571 -5.22335 -8.29642
lowerback 7.11103 5.46357 -2.92507
upperback 8.6962 7.36307 -5.66278
thorax 5.56738 3.71223 -4.46156
lowerneck 5.05656 -8.02568 -11.0081
upperneck 10.7507 -14.4734 31.4784
head 5.51817 -6.89051 11.8506
rclavicle -4.13472e-014 8.90555e-014
rhumerus 71.033 -0.401178 -107.431
rradius 12.1955
rwrist 10.2607
rhand -5.48316 11.4294
rfingers 7.12502
rthumb 20.3291 -17.5266
lclavicle -4.13472e-014 8.90555e-014
lhumerus 60.9982 -17.4984 114.139
lradius 16.9952
lwrist -3.18533
lhand -13.2312 29.7693
lfingers 7.12502
lthumb 12.8703 59.3525
rfemur -8.2225 6.49901 26.4887
rtibia 20.7871
rfoot -14.9897 -0.170461
rtoes -25.4965
lfemur -14.4393 -7.95569 -9.28324
ltibia 37.2172
lfoot -20.1983 8.09036
ltoes -17.7702
1026
root 0.21518 17.034 -1.49278 -1.0846 -4.99182 -8.24768
lowerback 6.94352 5.38077 -3.13976
upperback 8.81255 7.2579 -5.42806
thorax 5.71734 3.63549 -4.07395
lowerneck 5.09413 -8.01014 -11.4655
upperneck 10.7059 -14.4425 31.3778
head 5.51516 -6.90099 11.9008
rclavicle -1.11319e-014 -9.54166e-015
rhumerus 70.9407 0.024381 -107.25
rradius 12.2591
rwrist 9.77837
rhand -5.58 11.4339
rfingers 7.12502
rthumb 20.2361 -17.532
lclavicle -1.11319e-014 -9.54166e-015
lhumerus 61.2434 -17.1125 114.28
lradius 16.9673
lwrist -3.71529
lhand -13.0511 29.6679
lfingers 7.12502
lthumb 13.044 59.24
rfemur -8.21277 6.43253 26.4504
rtibia 20.8891
rfoot -14.9449 -0.339771
rtoes -25.3523
lfemur -14.4371 -8.03239 -9.33016
ltibia 37.1607
lfoot -20.1087 8.0337
ltoes -18.3091
1027
root 0.212401 17.0327 -1.4886 -1.1642 -4.77241 -8.16221
lowerback 6.6016 5.28779 -3.53814
upperback 9.05548 7.15304 -5.10047
thorax 6.0699 3.54031 -3.46852
lowerneck 5.04571 -7.97165 -11.9377
upperneck 10.6257 -14.3565 31.2032
head 5.49846 -6.8807 11.9215
rclavicle 1.66979e-014 3.18055e-014
rhumerus 70.9303 0.701531 -106.996
rradius 12.4157
rwrist 9.33414
rhand -5.73268 11.2191
rfingers 7.12502
rthumb 20.0893 -17.7622
lclavicle 1.66979e-014 3.18055e-014
lhumerus 61.7897 -16.8088 114.215
lradius 16.775
lwrist -3.81414
lhand -13.0236 29.4045
lfingers 7.12502
lthumb 13.0705 58.975
rfemur -8.16255 6.36203 26.3741
rtibia 21.0016
rfoot -14.9706 -0.533022
rtoes -25.5087
lfemur -14.3689 -8.10076 -9.42059
ltibia 37.0943
lfoot -20.093 7.88293
ltoes -17.8869
1028
root 0.210005 17.0319 -1.48645 -1.19321 -4.57891 -7.99124
lowerback 6.41234 5.23823 -3.82836
upperback 9.15893 7.09668 -4.96284
thorax 6.23198 3.48509 -3.1438
lowerneck 5.07295 -7.97405 -12.1838
upperneck 10.5892 -14.3431 31.0854
head 5.48699 -6.88944 11.9211
rclavicle -4.92986e-014 2.54444e-014
rhumerus 70.8997 1.12908 -106.927
rradius 12.4192
rwrist 9.03954
rhand -5.91457 11.0597
rfingers 7.12502
rthumb 19.9145 -17.9399
lclavicle -4.92986e-014 2.54444e-014
lhumerus 62.2546 -16.8343 113.676
lradius 16.4162
lwrist -3.42082
lhand -13.3977 29.2939
lfingers 7.12502
lthumb 12.7099 58.8872
rfemur -8.18403 6.37537 26.1938
rtibia 21.1134
rfoot -15.0164 -0.749803
rtoes -25.4062
lfemur -14.3716 -8.16131 -9.60007
ltibia 37.0304
lfoot -20.0729 7.6583
ltoes -16.8402
1029
root 0.209391 17.0348 -1.48483 -1.18846 -4.35988 -7.90702
lowerback 6.3804 5.18982 -3.894
upperback 9.15284 7.03029 -4.88764
thorax 6.2218 3.44474 -3.02572
lowerneck 5.1678 -7.97895 -12.4497
upperneck 10.6209 -14.3723 31.0986
head 5.50742 -6.91974 11.9831
rclavicle 6.36111e-015 4.77083e-014
rhumerus 70.769 1.33263 -106.915
rradius 12.4808
rwrist 8.75593
rhand -6.01348 10.9319
rfingers 7.12502
rthumb 19.8194 -18.0776
lclavicle 6.36111e-015 4.77083e-014
lhumerus 62.5353 -16.8955 113.156
lradius 16.0568
lwrist -2.85601
lhand -14.0579 28.9796
lfingers 7.12502
lthumb 12.0733 58.6113
rfemur -8.21928 6.30021 26.0991
rtibia 21.1943
rfoot -14.9955 -0.92047
rtoes -25.4611
lfemur -14.4186 -8.2726 -9.69068
ltibia 36.9742
lfoot -20.0084 7.5292
ltoes -16.733
1030
root 0.210233 17.0345 -1.48209 -1.206 -4.14952 -7.90524
lowerback 6.39016 5.14181 -3.80026
upperback 9.1303 6.96647 -4.8598
thorax 6.19581 3.41882 -3.04835
lowerneck 5.36963 -7.98182 -12.5509
upperneck 10.5435 -14.3699 31.1133
head 5.4541 -6.94367 12.0173
rclavicle 4.37326e-014 -8.5875e-014
rhumerus 70.5843 1.40537 -106.985
rradius 12.6334
rwrist 8.53054
rhand -6.03496 10.7836
rfingers 7.12502
rthumb 19.7988 -18.2281
lclavicle 4.37326e-014 -8.5875e-014
lhumerus 62.3937 -16.7276 113.227
lradius 16.133
lwrist -2.96752
lhand -14.2765 28.6425
lfingers 7.12502
lthumb 11.8624 58.2865
rfemur -8.20293 6.21074 26.095
rtibia 21.2471
rfoot -14.9794 -1.10022
rtoes -25.6791
lfemur -14.4444 -8.3471 -9.68826
ltibia 36.9412
lfoot -19.9553 7.40049
ltoes -16.9963
1031
root 0.211033 17.0337 -1.47908 -1.22176 -3.94023 -7.98953
lowerback 6.38808 5.09408 -3.63193
upperback 9.11232 6.90391 -4.77699
thorax 6.18185 3.39591 -3.05265
lowerneck 5.56595 -7.98445 -12.6792
upperneck 10.4696 -14.3621 31.0779
head 5.39919 -6.9655 12.0362
rclavicle 1.27222e-014 -5.08889e-014
rhumerus 70.4926 1.50793 -106.992
rradius 12.5752
rwrist 8.40388
rhand -6.13988 10.7055
rfingers 7.12502
rthumb 19.6979 -18.3165
lclavicle 1.27222e-014 -5.08889e-014
lhumerus 62.2055 -16.3589 113.808
lradius 16.1154
lwrist -3.86392
lhand -13.8147 28.4764
lfingers 7.12502
lthumb 12.3078 58.0942
rfemur -8.18713 6.17906 26.1786
rtibia 21.2792
rfoot -15.0151 -1.2087
rtoes -25.4896
lfemur -14.4634 -8.50045 -9.59548
ltibia 36.9016
lfoot -19.9742 7.38504
ltoes -17.1404
1032
root 0.212268 17.0343 -1.47624 -1.28234 -3.74605 -7.98146
lowerback 6.42638 5.03672 -3.56641
upperback 9.10367 6.82189 -4.67042
thorax 6.1396 3.35574 -2.97947
lowerneck 5.70306 -7.96555 -12.9553
upperneck 10.4583 -14.3385 31.0045
head 5.37812 -6.97698 12.0692
rclavicle -3.18055e-015 6.99722e-014
rhumerus 70.42 1.65181 -106.911
rradius 12.4164
rwrist 8.21944
rhand -6.39358 10.8209
rfingers 7.12502
rthumb 19.454 -18.2259
lclavicle -3.18055e-015 6.99722e-014
lhumerus 62.3718 -16.1162 113.864
lradius 15.809
lwrist -4.38156
lhand -13.1581 28.4669
lfingers 7.12502
lthumb 12.9408 58.0456
rfemur -8.13527 6.07857 26.1642
rtibia 21.3382
rfoot -15.029 -1.29203
rtoes -25.1216
lfemur -14.4272 -8.57563 -9.62183
ltibia 36.8618
lfoot -19.9481 7.45898
ltoes -18.0445
